<svg width="24" height="24" viewBox="0 0 24 24" fill="none" xmlns="http://www.w3.org/2000/svg">
<g clip-path="url(#clip0)">
<path d="M18.0325 1.84888H12.061V7.17692H18.0326V1.84888H18.0325ZM16.7376 5.21604H15.7499V6.2037H14.3437V5.21604H13.356V3.8098H14.3437V2.82214H15.7499V3.8098H16.7376V5.21604Z" fill="#2E60C0"/>
<path d="M24 6.61304V5.20679H19.4389V8.5831H10.6549V5.20679H6.09375V6.61304H6.72656L6.72628 20.7446H5.32003V8.57396H0V9.98021H0.632812V20.7446H0V22.1508H24V20.7446H23.3672V6.61304H24ZM2.27344 11.6208H3.67969V13.0271H2.27344V11.6208ZM2.27344 14.6677H3.67969V16.074H2.27344V14.6677ZM2.27344 17.7146H3.67969V19.1208H2.27344V17.7146ZM18.9141 11.6208H20.3203V13.0271H18.9141V11.6208ZM18.9141 14.6677H20.3203V16.074H18.9141V14.6677ZM15.8672 11.6208H17.2734V13.0271H15.8672V11.6208ZM15.8672 14.6677H17.2734V16.074H15.8672V14.6677ZM12.8203 11.6208H14.2266V13.0271H12.8203V11.6208ZM12.8203 14.6677H14.2266V16.074H12.8203V14.6677ZM9.77344 11.6208H11.1797V13.0271H9.77344V11.6208ZM9.77344 14.6677H11.1797V16.074H9.77344V14.6677ZM16.6289 20.7446V19.1208H13.4648V20.7446H12.0586V17.7146H18.0352V20.7446H16.6289Z" fill="#2E60C0"/>
</g>
<defs>
<clipPath id="clip0">
<rect width="24" height="24" fill="white"/>
</clipPath>
</defs>
</svg>
