<svg width="231" height="36" viewBox="0 0 231 36" fill="none" xmlns="http://www.w3.org/2000/svg">
<path d="M84.8144 13.8644V17.2214H80.9433V26.488H76.8571V13.8644H84.8144ZM107.602 26.7794C106.933 26.7801 106.265 26.7157 105.608 26.587V31.3503L101.52 32.2851V13.8644H104.61L104.902 15.2515C105.395 14.6866 106.006 14.2353 106.69 13.9288C107.375 13.6224 108.119 13.4679 108.869 13.4763C112.566 13.4763 114.221 16.1268 114.221 19.6266C114.223 23.7138 112.129 26.7794 107.602 26.7794ZM108.018 16.7826C107.537 16.8151 107.07 16.957 106.652 17.1974C106.234 17.4378 105.877 17.7704 105.608 18.1698V23.0579C106.151 23.409 106.787 23.5875 107.434 23.5698C109.087 23.5698 109.963 22.4245 109.963 20.1396C109.963 17.9763 109.477 16.7838 108.017 16.7838L108.018 16.7826ZM124.78 26.488V21.9397L124.83 19.8235L123.636 21.5504L119.938 26.488H116.434V13.8644H120.522V18.4139L120.45 20.5514L121.664 18.7998L125.34 13.861H128.844V26.4846L124.78 26.488ZM130.809 26.488L133.68 20.9665C133.021 20.7481 132.452 20.3218 132.058 19.7518C131.663 19.1817 131.465 18.4989 131.493 17.8064C131.493 15.0085 133.901 13.6225 137.914 13.6225C139.619 13.6225 141.298 13.7429 143.025 13.8644V26.488H138.961V21.9138H137.426L135.312 26.4869L130.809 26.488ZM137.72 19.387H138.958V16.2989C138.547 16.2466 138.134 16.2222 137.72 16.2258C136.237 16.2258 135.677 16.9008 135.677 17.8311C135.67 18.6805 136.26 19.387 137.719 19.387H137.72ZM99.4178 20.1745C99.4178 24.4293 96.9199 26.8739 92.6637 26.8739C88.4076 26.8739 85.9097 24.4281 85.9097 20.1745C85.9097 15.9209 88.4065 13.474 92.6637 13.474C96.921 13.474 99.4166 15.9209 99.4166 20.179L99.4178 20.1745ZM92.6637 16.6431C90.6207 16.6431 90.1017 18.1281 90.1017 20.1745C90.1017 22.2209 90.6207 23.7014 92.6637 23.7014C94.7068 23.7014 95.228 22.2164 95.228 20.1745C95.228 18.1326 94.7057 16.6476 92.6603 16.6476L92.6637 16.6431ZM66.4908 9.11914C61.5052 9.11914 59.0614 11.7843 58.5368 16.1234H56.299V9.5084L52.0215 10.441V26.4824H56.299V19.3375H58.4839C58.8622 23.9928 61.2981 26.875 66.4908 26.875C72.1586 26.875 74.5506 23.4303 74.5506 17.9965C74.5506 12.5628 72.1552 9.12364 66.4874 9.12364L66.4908 9.11914ZM66.4908 23.3988C63.6114 23.3988 62.8797 21.124 62.8797 17.9988C62.8797 14.8735 63.6102 12.5988 66.4908 12.5988C69.3714 12.5988 70.102 14.8746 70.102 17.9988C70.102 21.1229 69.368 23.4033 66.4874 23.4033L66.4908 23.3988ZM165.246 26.4813H160.968V20.3973L159.773 18.9348L155.885 26.479H151.122L156.835 16.1178L151.191 9.50613H156.304C157.831 11.5739 159.384 13.6461 160.968 15.706V9.50613H165.246V15.706C166.822 13.6473 168.411 11.5739 169.939 9.50613H175.051L169.476 16.0199L175.243 26.4824H170.21L166.365 19.0169L165.245 20.3984L165.246 26.4813ZM184.71 26.4813V21.9284L184.757 19.81L183.568 21.5403L179.873 26.4813H176.373V13.8734H180.457V18.4094L180.383 20.5548L181.597 18.7986L185.271 13.8734H188.77V26.4869L184.71 26.4813ZM194.546 26.7636C193.331 26.7629 192.117 26.6685 190.917 26.4813L190.972 23.8747C192.062 23.9478 193.085 23.9871 194.225 23.9871C196.026 23.9871 196.884 23.4595 196.884 22.6484C196.884 21.6595 195.859 21.2703 194.083 21.2703H192.113V18.7953H194.134C195.901 18.7953 196.537 18.1855 196.537 17.4363C196.537 16.687 195.974 16.246 194.566 16.246C193.466 16.264 192.376 16.4593 191.338 16.8243L190.973 14.338C192.507 13.7785 194.127 13.4863 195.76 13.474C199.025 13.474 200.721 14.7621 200.721 16.7365C200.733 17.4442 200.503 18.1347 200.07 18.6945C199.636 19.2543 199.025 19.6501 198.337 19.8168V19.8483C199.068 19.8776 199.76 20.1819 200.276 20.7002C200.792 21.2184 201.092 21.9124 201.117 22.6428C201.112 25.5295 198.406 26.7693 194.542 26.7693L194.546 26.7636ZM211.4 26.4813V21.6134H207.331V26.4813H203.254V13.8734H207.331V18.3138H211.4V13.8745H215.453V26.488L211.4 26.4813ZM218.302 13.8678H222.39V17.5071C222.923 17.4533 223.458 17.4289 223.993 17.434C228.953 17.434 230.314 19.4725 230.314 21.9284C230.314 25.3281 227.105 26.7164 223.56 26.7164C221.957 26.7164 220.127 26.6208 218.304 26.4824L218.302 13.8678ZM223.68 20.3511C223.267 20.3511 222.804 20.3703 222.39 20.3961V23.725C222.978 23.7723 223.458 23.7959 223.9 23.7959C225.28 23.7959 226.008 23.194 226.008 22.1242C226.005 21.0352 225.378 20.3568 223.677 20.3568L223.68 20.3511Z"/>
<path d="M9.52202 22.2435V26.487H13.7669C14.8928 26.4867 15.9725 26.0395 16.7686 25.2437C17.5646 24.4479 18.0118 23.3687 18.0118 22.2435C18.0124 23.3687 18.4599 24.4478 19.2561 25.2434C20.0522 26.0391 21.1319 26.4864 22.2578 26.487H26.5016V22.2435C26.5019 21.6864 26.3923 21.1347 26.1792 20.6199C25.966 20.1051 25.6535 19.6374 25.2594 19.2434C24.8652 18.8494 24.3973 18.5369 23.8823 18.3238C23.3673 18.1106 22.8153 18.001 22.2578 18.0011C22.8154 18.001 23.3674 17.8911 23.8825 17.6777C24.3975 17.4642 24.8654 17.1515 25.2595 16.7574C25.6536 16.3632 25.9661 15.8953 26.1792 15.3804C26.3923 14.8655 26.5019 14.3137 26.5016 13.7565V9.51524H22.2578C21.1321 9.51524 20.0524 9.96201 19.2562 10.7573C18.46 11.5527 18.0124 12.6314 18.0118 13.7565C18.0118 13.1994 17.902 12.6478 17.6887 12.1332C17.4753 11.6185 17.1626 11.1509 16.7684 10.7571C16.3743 10.3632 15.9063 10.0508 15.3913 9.83776C14.8763 9.62468 14.3243 9.51509 13.7669 9.51524H9.52202V13.7565C9.52173 14.3137 9.63127 14.8655 9.84439 15.3804C10.0575 15.8953 10.37 16.3632 10.7641 16.7574C11.1582 17.1515 11.6261 17.4642 12.1412 17.6777C12.6562 17.8911 13.2082 18.001 13.7658 18.0011C13.2084 18.0011 12.6565 18.1109 12.1415 18.3241C11.6265 18.5373 11.1587 18.8498 10.7646 19.2438C10.3705 19.6377 10.0579 20.1054 9.84473 20.6201C9.63153 21.1348 9.52188 21.6864 9.52202 22.2435ZM18.0107 13.761C18.0116 14.8857 18.4592 15.964 19.2551 16.759C20.0511 17.5541 21.1302 18.0008 22.2556 18.0011C21.13 18.0011 20.0504 18.4479 19.2544 19.2433C18.4583 20.0386 18.011 21.1174 18.0107 22.2424C18.0107 21.1177 17.5637 20.0391 16.7681 19.2438C15.9725 18.4484 14.8934 18.0014 13.768 18.0011C14.8931 18.0005 15.9719 17.5536 16.7674 16.7586C17.5629 15.9635 18.0101 14.8854 18.0107 13.761ZM0 0V36H36.0214V0H0ZM30.0182 30.0026H6.00431V6.00075H30.0193L30.0182 30.0026Z"/>
</svg>
