<svg width="206" height="202" viewBox="0 0 206 202" fill="none" xmlns="http://www.w3.org/2000/svg">
<path d="M103.2 10.7C152.9 10.7 193.4 51.2 193.4 100.9C193.4 150.6 152.9 191.1 103.2 191.1C53.5 191.1 13 150.6 13 100.9C13 51.2 53.4 10.7 103.2 10.7ZM103.2 0C47.4 0 2.19995 45.2 2.19995 100.9C2.19995 156.6 47.4 201.8 103.1 201.8C158.8 201.8 204 156.6 204 100.9C204 45.2 158.9 0 103.2 0Z" fill="white"/>
<path d="M143 59.7998H132.2C130.8 59.7998 129.7 60.6998 129.7 61.8998V118.8C129.7 129.4 127.3 136.7 122.2 141.2C118 144.9 111.8 146.8 103.3 146.8C95.7001 146.8 89.6 144.9 85.2 141.3C79.6 136.7 76.8001 129.1 76.8001 118.9V61.8998C76.8001 60.6998 75.7001 59.7998 74.3001 59.7998H63.3C61.9 59.7998 60.8 60.6998 60.8 61.8998V119.4C60.8 133.1 65.0001 143.5 73.4001 150.4C80.6001 156.3 90.8001 159.4 102.9 159.4C115.7 159.4 125.8 156.4 132.9 150.6C141.2 143.7 145.4 132.9 145.4 118.4V61.8998C145.5 60.6998 144.4 59.7998 143 59.7998Z" fill="white"/>
<path d="M103.2 70.4998C108.778 70.4998 113.3 65.9779 113.3 60.3998C113.3 54.8217 108.778 50.2998 103.2 50.2998C97.622 50.2998 93.1001 54.8217 93.1001 60.3998C93.1001 65.9779 97.622 70.4998 103.2 70.4998Z" fill="white"/>
</svg>
