<svg width="60" height="60" viewBox="0 0 60 60" fill="none" xmlns="http://www.w3.org/2000/svg">
<path d="M58.4534 18.8821C56.3973 16.8259 53.0517 16.826 50.995 18.8825C50.3624 19.5157 46.3235 23.5579 45.7065 24.1754V10.2452C45.7065 8.83664 45.158 7.51242 44.1619 6.51645L39.1902 1.54453C38.1942 0.548438 36.8699 0 35.4613 0H5.27686C2.36908 0 0.00341797 2.36566 0.00341797 5.27344V54.7266C0.00341797 57.6343 2.36908 60 5.27686 60H40.4331C43.3409 60 45.7065 57.6343 45.7065 54.7266V39.0974L58.4533 26.3399C60.5142 24.279 60.5147 20.9432 58.4534 18.8821ZM35.1598 3.51562C35.4919 3.51562 36.1319 3.45809 36.7043 4.03043L41.6761 9.00234C42.2339 9.56027 42.191 10.1716 42.191 10.5469H35.1598V3.51562ZM42.1909 54.7266C42.1909 55.6958 41.4025 56.4844 40.4331 56.4844H5.27686C4.3076 56.4844 3.51904 55.6958 3.51904 54.7266V5.27344C3.51904 4.30418 4.3076 3.51562 5.27686 3.51562H31.644V12.3047C31.644 13.2755 32.4311 14.0625 33.4019 14.0625H42.1909V27.6941C42.1909 27.6941 37.0049 32.8846 37.0047 32.8847L34.5199 35.3695C34.327 35.5624 34.1815 35.7977 34.0953 36.0566L31.6092 43.5144C31.3987 44.1461 31.5631 44.8425 32.0339 45.3132C32.5054 45.7847 33.202 45.9483 33.8328 45.7379L41.2906 43.252C41.5494 43.1658 41.7847 43.0204 41.9776 42.8273L42.1909 42.6141V54.7266ZM38.2487 36.6125L40.7346 39.0984L39.7851 40.048L36.0563 41.2909L37.2992 37.562L38.2487 36.6125ZM43.2201 36.612L40.7342 34.1261C42.0579 32.8013 47.9371 26.917 49.184 25.6691L51.6699 28.155L43.2201 36.612ZM55.9669 23.8545L54.1548 25.668L51.6689 23.1821L53.4816 21.368C54.1674 20.6825 55.2823 20.6827 55.9676 21.368C56.6528 22.0535 56.6564 23.1648 55.9669 23.8545Z" fill="#00A76D"/>
<path d="M33.4009 17.5781H8.7915C7.82072 17.5781 7.03369 18.3652 7.03369 19.3359C7.03369 20.3067 7.82072 21.0938 8.7915 21.0938H33.4009C34.3717 21.0938 35.1587 20.3067 35.1587 19.3359C35.1587 18.3652 34.3717 17.5781 33.4009 17.5781Z" fill="#00A76D"/>
<path d="M26.3696 24.6094H8.7915C7.82072 24.6094 7.03369 25.3964 7.03369 26.3672C7.03369 27.338 7.82072 28.125 8.7915 28.125H26.3696C27.3404 28.125 28.1274 27.338 28.1274 26.3672C28.1274 25.3964 27.3404 24.6094 26.3696 24.6094Z" fill="#00A76D"/>
<path d="M26.3696 31.6406H8.7915C7.82072 31.6406 7.03369 32.4277 7.03369 33.3984C7.03369 34.3692 7.82072 35.1562 8.7915 35.1562H26.3696C27.3404 35.1562 28.1274 34.3692 28.1274 33.3984C28.1274 32.4277 27.3404 31.6406 26.3696 31.6406Z" fill="#00A76D"/>
<path d="M26.3696 38.6719H8.7915C7.82072 38.6719 7.03369 39.4589 7.03369 40.4297C7.03369 41.4005 7.82072 42.1875 8.7915 42.1875H26.3696C27.3404 42.1875 28.1274 41.4005 28.1274 40.4297C28.1274 39.4589 27.3404 38.6719 26.3696 38.6719Z" fill="#00A76D"/>
<path d="M33.4009 49.4531H22.854C21.8832 49.4531 21.0962 50.2402 21.0962 51.2109C21.0962 52.1817 21.8832 52.9688 22.854 52.9688H33.4009C34.3717 52.9688 35.1587 52.1817 35.1587 51.2109C35.1587 50.2402 34.3717 49.4531 33.4009 49.4531Z" fill="#00A76D"/>
</svg>
