<svg width="60" height="60" viewBox="0 0 60 60" fill="none" xmlns="http://www.w3.org/2000/svg">
<path d="M36.4427 42.8319L41.5011 43.4631C42.0182 43.5279 42.5378 43.3594 42.9187 43.0035C43.2997 42.6476 43.503 42.1411 43.4739 41.6206L43.1714 36.2217C44.2158 34.1631 44.7656 31.8655 44.7656 29.5437C44.7656 21.4019 38.1418 14.7781 30 14.7781C21.8582 14.7781 15.2344 21.4019 15.2344 29.5437C15.2344 37.6855 21.8582 44.3093 30 44.3093C32.2309 44.3093 34.446 43.8 36.4427 42.8319ZM18.75 29.5437C18.75 23.3404 23.7967 18.2937 30 18.2937C36.2033 18.2937 41.25 23.3404 41.25 29.5437C41.25 31.4465 40.7663 33.3265 39.851 34.9805C39.6907 35.2702 39.6154 35.5994 39.6339 35.9299L39.8459 39.7138L36.3434 39.2768C35.9829 39.2316 35.6173 39.2995 35.2966 39.471C33.6785 40.3364 31.847 40.7938 30 40.7938C23.7967 40.7937 18.75 35.747 18.75 29.5437Z" fill="#3069b2"/>
<path d="M31.7578 34.8237V33.2795H32.469C34.8757 33.2795 36.8338 31.3215 36.8338 28.9147V28.2254C37.4346 27.9459 37.8512 27.337 37.8512 26.6307C37.8512 25.66 37.0642 24.8729 36.0934 24.8729H36.03C34.5347 24.8729 33.3182 26.0894 33.3182 27.5846V28.9148C33.3182 29.3752 32.9294 29.764 32.469 29.764H31.7578V26.6944C31.7578 25.7236 30.9708 24.9366 30 24.9366C29.0292 24.9366 28.2422 25.7236 28.2422 26.6944V29.764H27.531C27.0707 29.764 26.6819 29.3752 26.6819 28.9148V27.5846C26.6819 26.0894 25.4653 24.8729 23.9701 24.8729H23.9067C22.936 24.8729 22.1489 25.66 22.1489 26.6307C22.1489 27.3369 22.5654 27.9459 23.1662 28.2254V28.9148C23.1662 31.3216 25.1243 33.2796 27.531 33.2796H28.2422V34.8238C28.2422 35.7946 29.0292 36.5816 30 36.5816C30.9708 36.5816 31.7578 35.7944 31.7578 34.8237Z" fill="#3069b2"/>
<path d="M55.6641 23.6714V19.1602C55.6641 15.5123 54.4937 12.0431 52.2796 9.12762C50.1802 6.3634 47.2215 4.2893 43.9329 3.2659C43.1416 1.35117 41.2548 0 39.0575 0H20.9425C18.7463 0 16.8602 1.34988 16.0682 3.26309C9.13043 5.415 4.33594 11.8663 4.33594 19.1602V23.6714C1.74375 25.2015 0 28.0225 0 31.2443V34.7599C0 39.6062 3.94277 43.549 8.78906 43.549H8.95301C9.2659 44.0338 9.80977 44.3555 10.4297 44.3555C11.4005 44.3555 12.1875 43.5684 12.1875 42.5977V23.3789C12.1875 22.4081 11.4005 21.6211 10.4297 21.6211C9.79816 21.6211 9.24609 21.9552 8.93613 22.4552H8.78906C8.4723 22.4552 8.15977 22.4729 7.85156 22.5059V19.1602C7.85156 13.8154 11.1177 9.04383 15.9717 7.03219C16.6976 9.07769 18.6512 10.5469 20.9425 10.5469H39.0575C41.3475 10.5469 43.3003 9.07934 44.0271 7.03559C48.8688 9.05238 52.1484 13.8568 52.1484 19.1602V22.5059C51.8402 22.473 51.5277 22.4552 51.2109 22.4552H51.0639C50.7539 21.9552 50.2018 21.6211 49.5703 21.6211C48.5995 21.6211 47.8125 22.4081 47.8125 23.3789V42.5977C47.8125 43.5684 48.5995 44.3555 49.5703 44.3555C50.1902 44.3555 50.7341 44.0338 51.047 43.549H51.2109C51.5277 43.549 51.8402 43.5313 52.1484 43.4984V47.8125C52.1484 50.7203 49.7828 53.0859 46.875 53.0859H40.2843C39.5927 50.9793 37.6085 49.4531 35.2734 49.4531C32.3657 49.4531 30 51.8188 30 54.7266C30 57.6343 32.3657 60 35.2734 60C37.521 60 39.4434 58.5861 40.2012 56.6016H46.875C51.7213 56.6016 55.6641 52.6588 55.6641 47.8125V42.3328C58.2562 40.8027 60 37.9819 60 34.7599V31.2443C60 28.0225 58.2562 25.2015 55.6641 23.6714ZM8.67188 40.0321C5.81801 39.9694 3.51562 37.6284 3.51562 34.7599V31.2443C3.51562 28.3757 5.81801 26.0347 8.67188 25.9721V40.0321ZM39.0575 7.03125H20.9425C19.9732 7.03125 19.1846 6.2427 19.1846 5.27344C19.1846 4.30418 19.9732 3.51562 20.9425 3.51562H39.0575C40.0268 3.51562 40.8153 4.30418 40.8153 5.27344C40.8153 6.2427 40.0269 7.03125 39.0575 7.03125ZM35.2734 56.4844C34.3042 56.4844 33.5156 55.6958 33.5156 54.7266C33.5156 53.7573 34.3042 52.9688 35.2734 52.9688C36.2427 52.9688 37.0312 53.7573 37.0312 54.7266C37.0312 55.6958 36.2427 56.4844 35.2734 56.4844ZM56.4844 34.76C56.4844 37.6286 54.182 39.9695 51.3281 40.0322V25.9721C54.182 26.0348 56.4844 28.3758 56.4844 31.2443V34.76Z" fill="#3069b2"/>
</svg>
