<svg width="60" height="54" viewBox="0 0 60 54" fill="none" xmlns="http://www.w3.org/2000/svg">
<path d="M58.3857 17.1017C56.2316 14.9474 52.7263 14.9476 50.5722 17.1017L47.0288 20.6453L42.9986 16.6151C46.8837 15.9369 49.8472 12.542 49.8472 8.46567C49.8472 3.90288 46.1351 0.190918 41.5724 0.190918C37.496 0.190918 34.101 3.15461 33.4231 7.0399L29.4481 3.06495C28.4048 2.02135 27.0172 1.44652 25.5413 1.44652C24.0652 1.44652 22.6778 2.02123 21.6347 3.06484L14.1845 10.515C12.0304 12.6691 12.0304 16.1741 14.1845 18.3284C15.2616 19.4055 16.6761 19.9441 18.0911 19.944C19.5057 19.9438 20.9208 19.4053 21.9978 18.3284L25.5414 14.7848L28.3794 17.6229L23.1193 22.8798C23.1193 22.8799 23.1191 22.8799 23.1191 22.8799L23.119 22.88L1.61932 44.378C-0.534565 46.5322 -0.534565 50.0371 1.61932 52.1912C2.66269 53.2348 4.05025 53.8097 5.52617 53.8097C7.0021 53.8097 8.38954 53.2349 9.43279 52.1913L24.3609 37.263L28.8113 41.7134L26.1884 44.3361C24.0344 46.4904 24.0345 49.9955 26.1885 52.1496C27.232 53.1931 28.6195 53.7678 30.0953 53.7678C31.5711 53.7678 32.9584 53.1931 34.0019 52.1495L40.5313 45.6201C41.5748 44.5766 42.1495 43.1892 42.1495 41.7134C42.1495 40.2377 41.5749 38.8502 40.5313 37.8068L35.4864 32.7618L39.5048 28.748L43.1221 32.3653C44.1655 33.4087 45.553 33.9836 47.0288 33.9836C48.5045 33.9836 49.8919 33.4089 50.9354 32.3653L58.3858 24.9151C60.5397 22.7608 60.5397 19.2558 58.3857 17.1017ZM36.8133 8.46567C36.8133 5.84149 38.9482 3.7067 41.5723 3.7067C44.1964 3.7067 46.3313 5.8416 46.3313 8.46567C46.3313 11.09 44.1964 13.2249 41.5723 13.2249C40.3005 13.2249 39.1447 12.7225 38.29 11.9068L38.1314 11.7482C37.3159 10.8938 36.8133 9.73768 36.8133 8.46567ZM26.7843 11.0559C26.0979 10.3693 24.9848 10.3693 24.2983 11.0559L19.5117 15.8424C18.7282 16.6258 17.4536 16.6259 16.6705 15.8425C15.8871 15.059 15.8871 13.7845 16.6704 13.0011L24.1208 5.55073C24.5 5.17149 25.0044 4.96242 25.5412 4.96242C26.0779 4.96242 26.5824 5.17138 26.9619 5.55085L33.9742 12.5631C33.3532 12.8357 32.7816 13.223 32.2877 13.7168L30.866 15.1376L26.7843 11.0559ZM38.6336 41.7134C38.6336 42.25 38.4247 42.7545 38.0452 43.134L31.5158 49.6635C31.1363 50.043 30.6317 50.2519 30.095 50.2519C29.5584 50.2519 29.054 50.043 28.6745 49.6636C27.8912 48.8802 27.8912 47.6055 28.6744 46.8222L32.5401 42.9564C33.2267 42.27 33.2267 41.1569 32.5401 40.4704L25.6037 33.534C25.2742 33.2042 24.827 33.0191 24.3608 33.0191C23.8945 33.0191 23.4474 33.2042 23.1178 33.534L6.94666 49.7054C6.56731 50.0848 6.0628 50.2939 5.52617 50.2939C4.98943 50.2939 4.48491 50.0849 4.10556 49.7053C3.32213 48.9219 3.32213 47.6474 4.10544 46.8641L24.362 26.6093L38.0454 40.2928C38.4246 40.6722 38.6336 41.1767 38.6336 41.7134ZM55.8997 22.4291L48.4494 29.8792C48.0699 30.2587 47.5654 30.4678 47.0288 30.4678C46.4922 30.4678 45.9875 30.2588 45.6081 29.8792L40.7486 25.0197C40.0624 24.3333 38.9498 24.3333 38.2632 25.0189L33.0004 30.2757L26.8482 24.1237L34.7734 16.2033C35.1528 15.8238 35.6575 15.6149 36.1941 15.6149C36.7307 15.6149 37.2352 15.8238 37.6147 16.2033L45.7857 24.3742C46.1153 24.7039 46.5625 24.8891 47.0288 24.8891C47.495 24.8891 47.9422 24.7039 48.2717 24.3742L53.0582 19.5876C53.8417 18.8042 55.1164 18.8042 55.8996 19.5876C56.683 20.371 56.683 21.6456 55.8997 22.4291Z" fill="#00A76D"/>
</svg>
