<svg width="23" height="22" viewBox="0 0 23 22" fill="none" xmlns="http://www.w3.org/2000/svg">
<path fill-rule="evenodd" clip-rule="evenodd" d="M17.597 10.2985C17.597 14.3293 14.3293 17.597 10.2985 17.597C6.26765 17.597 3 14.3293 3 10.2985C3 6.26765 6.26765 3 10.2985 3C14.3293 3 17.597 6.26765 17.597 10.2985ZM16.7837 18.299C15.0132 19.7359 12.7564 20.597 10.2985 20.597C4.6108 20.597 0 15.9862 0 10.2985C0 4.6108 4.6108 0 10.2985 0C15.9862 0 20.597 4.6108 20.597 10.2985C20.597 12.4451 19.9403 14.4383 18.8167 16.0881L22.8446 19.4447L20.9241 21.7493L16.7837 18.299Z" fill="#DFE5F2"/>
</svg>
