<svg width="60" height="46" viewBox="0 0 60 46" fill="none" xmlns="http://www.w3.org/2000/svg">
<path d="M49.4376 24.794H46.653C48.4007 23.6743 49.964 22.306 51.2814 20.7121C54.5865 16.7154 56.3329 11.8457 56.3329 6.63083V1.909C56.3329 0.936707 55.5446 0.148438 54.5728 0.148438H49.8509C45.3127 0.148438 40.9776 1.51761 37.3393 4.01608C33.8869 1.51349 29.6938 0.148438 25.3867 0.148438H22.4245C21.4526 0.148438 20.6644 0.936707 20.6644 1.909V4.87073C20.6644 6.52692 20.8621 8.1506 21.2416 9.7157C20.9917 9.92352 20.7509 10.1419 20.5211 10.3721L3.09357 27.7992C1.09863 29.7946 0 32.4469 0 35.2681C0 38.0893 1.09863 40.742 3.09357 42.7369C5.0885 44.7319 7.74124 45.8305 10.5624 45.8305C13.1461 45.8305 15.5869 44.9063 17.5122 43.219C19.3826 44.8967 21.8527 45.9189 24.5572 45.9189H49.4376C55.2617 45.9189 60 41.1805 60 35.3564C60 29.5323 55.2617 24.794 49.4376 24.794ZM52.8122 3.6691V6.63083C52.8122 11.0171 51.3446 15.1104 48.5683 18.4686C45.2449 22.4882 39.9998 24.7935 34.1771 24.794L41.7343 17.2368C42.4219 16.5497 42.4219 15.435 41.7343 14.7474C41.0468 14.0599 39.9321 14.0599 39.2445 14.7474L31.2383 22.7537C31.1206 18.367 32.5562 14.0672 35.3741 10.5818C38.9255 6.18863 44.2021 3.6691 49.8509 3.6691H52.8122ZM24.185 3.6691H25.3867C28.634 3.6691 31.8013 4.6066 34.4975 6.3374C33.8411 6.97141 33.2185 7.64798 32.6358 8.3685C32.5159 8.51682 32.3987 8.6665 32.2833 8.81711L31.1714 7.70566C30.4843 7.0181 29.3697 7.0181 28.6821 7.70566C27.9945 8.39322 27.9945 9.50787 28.6821 10.1954L30.3287 11.842C29.5798 13.2368 28.9874 14.6994 28.5567 16.2063C25.751 13.1242 24.185 9.12473 24.185 4.87119V3.6691ZM22.505 13.3673C23.719 16.0196 25.5084 18.4031 27.7917 20.3578C27.6654 21.824 27.686 23.309 27.8572 24.794H24.5572C23.2059 24.794 21.9136 25.0494 20.7248 25.514L15.5415 20.3303L22.505 13.3673ZM5.58334 40.2472C4.25308 38.9174 3.52066 37.149 3.52066 35.2681C3.52066 33.3871 4.25308 31.6188 5.58334 30.289L13.0522 22.8201L17.6253 27.3936C15.4019 29.3313 13.9948 32.1827 13.9948 35.3564C13.9948 37.2081 14.474 38.9489 15.3145 40.4637C14.0135 41.6562 12.3381 42.3098 10.5624 42.3098C8.68149 42.3098 6.91315 41.5774 5.58334 40.2472ZM17.5154 35.3564C17.5154 31.4737 20.6744 28.3151 24.5572 28.3151H35.1196V42.3982H24.5572C20.6744 42.3982 17.5154 39.2392 17.5154 35.3564ZM49.4376 42.3982H38.6403V28.3151H49.4376C53.3203 28.3151 56.4793 31.4737 56.4793 35.3564C56.4793 39.2392 53.3203 42.3982 49.4376 42.3982Z" fill="#3069b2"/>
</svg>
