<svg width="438" height="202" viewBox="0 0 438 202" fill="none" xmlns="http://www.w3.org/2000/svg">
<path d="M101.2 10.7C150.9 10.7 191.4 51.2 191.4 100.9C191.4 150.6 150.9 191.1 101.2 191.1C51.4998 191.1 10.9998 150.6 10.9998 100.9C10.9998 51.2 51.4998 10.7 101.2 10.7ZM101.2 0C45.4998 0 0.299805 45.2 0.299805 100.9C0.299805 156.6 45.4998 201.8 101.2 201.8C156.9 201.8 202.1 156.6 202.1 100.9C202.1 45.2 156.9 0 101.2 0Z" fill="#3069B2"/>
<path d="M141.099 59.8008H130.299C128.899 59.8008 127.799 60.7008 127.799 61.9008V118.801C127.799 129.401 125.399 136.701 120.299 141.201C116.099 144.901 109.899 146.801 101.399 146.801C93.7994 146.801 87.6994 144.901 83.2994 141.301C77.6994 136.701 74.8994 129.101 74.8994 118.901V61.9008C74.8994 60.7008 73.7994 59.8008 72.3994 59.8008H61.3994C59.9994 59.8008 58.8994 60.7008 58.8994 61.9008V119.401C58.8994 133.101 63.0994 143.501 71.4994 150.401C78.6994 156.301 88.8994 159.401 100.999 159.401C113.799 159.401 123.899 156.401 130.999 150.601C139.299 143.701 143.499 132.901 143.499 118.401V61.9008C143.499 60.7008 142.399 59.8008 141.099 59.8008Z" fill="#E7266B"/>
<path d="M101.2 70.5008C106.778 70.5008 111.3 65.9789 111.3 60.4008C111.3 54.8227 106.778 50.3008 101.2 50.3008C95.6215 50.3008 91.0996 54.8227 91.0996 60.4008C91.0996 65.9789 95.6215 70.5008 101.2 70.5008Z" fill="#E7266B"/>
<path d="M239.4 77V109.3C239.4 113.1 240.4 117.7 245.5 117.7C250.5 117.7 251.6 113.9 251.6 109.3V77H260V109.5C260 117.9 256.7 124.8 245.4 124.8C234.2 124.8 231 118.4 231 109.5V77H239.4V77Z" fill="#3069B2"/>
<path d="M285 77H293.4V116.7H309.5L308.7 123.9H285V77Z" fill="#3069B2"/>
<path d="M339.5 77V123.9H331.1V77H339.5Z" fill="#3069B2"/>
<path d="M365.3 77H389.4V84.4H373.6V96.5H388.4V103.7H373.6V123.9H365.2V77H365.3Z" fill="#3069B2"/>
<path d="M435.4 103.1H420.3V116.7H437.2L436.2 123.9H412V77H436.1V84.4H420.3V95.8H435.4V103.1Z" fill="#3069B2"/>
</svg>
