<svg width="60" height="60" viewBox="0 0 60 60" fill="none" xmlns="http://www.w3.org/2000/svg">
<path d="M58.4588 5.37433C57.0063 3.44864 54.7899 2.34429 52.3777 2.34429H51.3566V1.75837C51.3566 0.787615 50.5696 0.000605466 49.5988 0.000605466C48.6281 0.000605466 47.8411 0.787615 47.8411 1.75837V6.44574C47.8411 7.4165 48.6281 8.20351 49.5988 8.20351C50.5696 8.20351 51.3566 7.4165 51.3566 6.44574V5.85982H52.3777C53.6765 5.85982 54.87 6.45453 55.6521 7.49138C56.4342 8.52822 56.6782 9.83916 56.3214 11.088L51.656 27.4167C50.3541 31.9734 46.135 35.1558 41.3959 35.1558C36.6569 35.1558 32.4378 31.9733 31.1359 27.4167L26.4706 11.0879C26.1138 9.83905 26.3578 8.52811 27.1399 7.49126C27.922 6.4543 29.1155 5.8597 30.4142 5.8597H31.4353V6.44562C31.4353 7.41638 32.2223 8.20339 33.193 8.20339C34.1638 8.20339 34.9508 7.41638 34.9508 6.44562V1.75825C34.9508 0.787498 34.1638 0.000488281 33.193 0.000488281C32.2223 0.000488281 31.4353 0.787498 31.4353 1.75825V2.34417H30.4142C28.0022 2.34417 25.7857 3.44864 24.3332 5.37421C22.8806 7.2999 22.4277 9.7344 23.0903 12.0536L27.7557 28.3823C28.6095 31.3705 30.3722 33.9391 32.8532 35.8106C33.385 36.2117 33.9396 36.5697 34.5117 36.8887L39.6383 48.9889V50.2576C39.6383 53.6905 36.8454 56.4833 33.4125 56.4833C29.9796 56.4833 27.1868 53.6905 27.1868 50.2576V38.2026C27.1868 32.6457 22.6658 28.1247 17.1089 28.1247C11.552 28.1247 7.03106 32.6457 7.03106 38.2026V42.3637C3.02429 43.1802 0 46.7312 0 50.9757C0 55.8218 3.94267 59.7645 8.78882 59.7645C13.635 59.7645 17.5776 55.8218 17.5776 50.9757C17.5776 46.7314 14.5534 43.1803 10.5466 42.3637V38.2026C10.5466 34.5842 13.4905 31.6402 17.1089 31.6402C20.7273 31.6402 23.6712 34.5842 23.6712 38.2026V50.2576C23.6712 55.6289 28.0411 59.9988 33.4125 59.9988C38.7839 59.9988 43.1538 55.6289 43.1538 50.2576V48.9889L48.2805 36.8887C48.8526 36.5697 49.4072 36.2117 49.9389 35.8106C52.4199 33.9392 54.1826 31.3705 55.0364 28.3823L59.7018 12.0536C60.3644 9.73452 59.9113 7.2999 58.4588 5.37433ZM14.0621 50.9757C14.0621 53.8834 11.6965 56.249 8.78882 56.249C5.88113 56.249 3.51553 53.8834 3.51553 50.9757C3.51553 48.068 5.88113 45.7024 8.78882 45.7024C11.6965 45.7024 14.0621 48.068 14.0621 50.9757ZM41.3961 44.1261L38.9994 38.4693C39.7842 38.6023 40.5848 38.6713 41.3962 38.6713C42.2076 38.6713 43.008 38.6023 43.7928 38.4693L41.3961 44.1261Z" fill="#3069b2"/>
</svg>
