<svg width="22" height="15" viewBox="0 0 22 15" fill="none" xmlns="http://www.w3.org/2000/svg">
<path d="M11 4.28572C9.1938 4.28572 7.7 5.74179 7.7 7.5C7.7 9.25929 9.1938 10.7143 11 10.7143C12.8051 10.7143 14.3 9.25929 14.3 7.5C14.3 5.74179 12.8051 4.28572 11 4.28572Z" fill="#DFE5F2"/>
<path d="M11 0C2.6488 0 0.13895 7.08965 0.115974 7.16143L0 7.5L0.11488 7.83857C0.13895 7.91036 2.6488 15 11 15C19.3512 15 21.8611 7.91036 21.884 7.83857L22 7.5L21.8851 7.16143C21.8611 7.08965 19.3512 0 11 0ZM11 12.8571C5.14551 12.8571 2.87746 8.73643 2.32823 7.5C2.87965 6.25929 5.1488 2.14286 11 2.14286C16.8545 2.14286 19.1225 6.26357 19.6718 7.5C19.1204 8.74072 16.8512 12.8571 11 12.8571Z" fill="#DFE5F2"/>
</svg>
