<svg width="49" height="60" viewBox="0 0 49 60" fill="none" xmlns="http://www.w3.org/2000/svg">
<path d="M32.8098 0.346528C32.5347 0.056763 32.1575 -0.117188 31.7666 -0.117188H8.36064C4.04163 -0.117188 0.476562 3.43369 0.476562 7.75224V52.013C0.476562 56.332 4.04163 59.8829 8.36064 59.8829H40.1286C44.4476 59.8829 48.0127 56.332 48.0127 52.013V16.8682C48.0127 16.4914 47.8387 16.1293 47.5924 15.8538L32.8098 0.346528ZM33.2301 4.99879L43.1288 15.39H36.694C34.781 15.39 33.2301 13.8538 33.2301 11.9408V4.99879ZM40.1286 56.9844H8.36064C5.65067 56.9844 3.37513 54.7381 3.37513 52.013V7.75224C3.37513 5.04228 5.63603 2.78138 8.36064 2.78138H30.3315V11.9408C30.3315 15.4624 33.1724 18.2886 36.694 18.2886H45.1141V52.013C45.1141 54.7381 42.8532 56.9844 40.1286 56.9844Z" fill="#2E60C0"/>
<path d="M36.172 46.9845H12.317C11.52 46.9845 10.8677 47.6364 10.8677 48.4338C10.8677 49.2308 11.52 49.8831 12.317 49.8831H36.1866C36.9836 49.8831 37.6359 49.2308 37.6359 48.4338C37.6359 47.6364 36.9836 46.9845 36.172 46.9845Z" fill="#2E60C0"/>
<path d="M23.1864 41.7815C23.4619 42.0713 23.8387 42.2452 24.2443 42.2452C24.6503 42.2452 25.027 42.0713 25.3022 41.7815L33.7951 32.6656C34.3458 32.0856 34.3023 31.1582 33.7227 30.6221C33.1428 30.0714 32.2153 30.1145 31.6793 30.6944L25.6936 37.1146V21.2888C25.6936 20.4913 25.0412 19.8395 24.2443 19.8395C23.4473 19.8395 22.795 20.4913 22.795 21.2888V37.1146L16.8239 30.6944C16.2732 30.1149 15.36 30.0714 14.7804 30.6221C14.2009 31.1728 14.1574 32.0861 14.7081 32.6656L23.1864 41.7815Z" fill="#2E60C0"/>
</svg>
