<svg width="60" height="54" viewBox="0 0 60 54" fill="none" xmlns="http://www.w3.org/2000/svg">
<path d="M58.125 27.0015H56.25V17.6265C56.25 16.5915 55.41 15.7515 54.375 15.7515H52.5V10.1265C52.5 9.09146 51.66 8.25146 50.625 8.25146H44.2837L41.0512 1.78646C40.5862 0.856462 39.4613 0.485211 38.535 0.946461L34.215 3.11021L33.5512 1.78646C33.0862 0.860212 31.9613 0.485212 31.035 0.950212L16.4325 8.25146H5.625C2.52375 8.25146 0 10.7752 0 13.8765V47.6265C0 50.7277 2.52375 53.2515 5.625 53.2515H54.375C55.41 53.2515 56.25 52.4115 56.25 51.3765V42.0015H58.125C59.16 42.0015 60 41.1615 60 40.1265V28.8765C60 27.8415 59.16 27.0015 58.125 27.0015ZM48.75 12.0015V15.7515H48.0337L46.1587 12.0015H48.75ZM38.535 5.14271L43.8413 15.7515H40.5337L35.8913 6.46271L38.535 5.14271ZM31.035 5.14271L36.3413 15.7515H9.8175L31.035 5.14271ZM5.625 12.0015H8.9325L3.9 14.5177C3.825 14.3115 3.75 14.1015 3.75 13.8765C3.75 12.8415 4.59 12.0015 5.625 12.0015ZM52.5 49.5015H5.625C4.59 49.5015 3.75 48.6615 3.75 47.6265V19.1415C4.365 19.3627 4.995 19.5015 5.625 19.5015H52.5V27.0015H45C40.8638 27.0015 37.5 30.3652 37.5 34.5015C37.5 38.6377 40.8638 42.0015 45 42.0015H52.5V49.5015ZM56.25 38.2515H45C42.9338 38.2515 41.25 36.5677 41.25 34.5015C41.25 32.4352 42.9338 30.7515 45 30.7515H56.25V38.2515Z" fill="#00A76D"/>
</svg>
