<svg width="207" height="32" viewBox="0 0 207 32" fill="none" xmlns="http://www.w3.org/2000/svg">
<path d="M75.4557 12.3237V15.3077H72.0117V23.5447H68.3764V12.3237H75.4557ZM95.7292 23.8037C95.1335 23.8044 94.5391 23.7471 93.9546 23.6327V27.8667L90.3183 28.6977V12.3237H93.0673L93.3267 13.5567C93.7657 13.0545 94.3085 12.6534 94.9178 12.381C95.5271 12.1086 96.1883 11.9713 96.8558 11.9787C100.145 11.9787 101.618 14.3347 101.618 17.4457C101.619 21.0787 99.756 23.8037 95.7292 23.8037V23.8037ZM96.0987 14.9177C95.6709 14.9466 95.2553 15.0727 94.8837 15.2864C94.5121 15.5001 94.1943 15.7957 93.9546 16.1507V20.4957C94.4375 20.8078 95.0039 20.9664 95.5789 20.9507C97.0501 20.9507 97.8292 19.9327 97.8292 17.9017C97.8292 15.9787 97.3966 14.9187 96.0977 14.9187L96.0987 14.9177ZM111.011 23.5447V19.5017L111.055 17.6207L109.994 19.1557L106.703 23.5447H103.587V12.3237H107.223V16.3677L107.159 18.2677L108.239 16.7107L111.509 12.3207H114.627V23.5417L111.011 23.5447ZM116.375 23.5447L118.929 18.6367C118.343 18.4426 117.837 18.0636 117.486 17.5569C117.135 17.0503 116.958 16.4433 116.983 15.8277C116.983 13.3407 119.126 12.1087 122.696 12.1087C124.213 12.1087 125.707 12.2157 127.243 12.3237V23.5447H123.628V19.4787H122.262L120.381 23.5437L116.375 23.5447ZM122.523 17.2327H123.625V14.4877C123.259 14.4412 122.891 14.4195 122.523 14.4227C121.204 14.4227 120.705 15.0227 120.705 15.8497C120.699 16.6047 121.224 17.2327 122.522 17.2327H122.523ZM88.4476 17.9327C88.4476 21.7147 86.2254 23.8877 82.4388 23.8877C78.6523 23.8877 76.4301 21.7137 76.4301 17.9327C76.4301 14.1517 78.6513 11.9767 82.4388 11.9767C86.2264 11.9767 88.4466 14.1517 88.4466 17.9367L88.4476 17.9327ZM82.4388 14.7937C80.6212 14.7937 80.1595 16.1137 80.1595 17.9327C80.1595 19.7517 80.6212 21.0677 82.4388 21.0677C84.2565 21.0677 84.7201 19.7477 84.7201 17.9327C84.7201 16.1177 84.2555 14.7977 82.4358 14.7977L82.4388 14.7937ZM59.154 8.10571C54.7185 8.10571 52.5444 10.4747 52.0777 14.3317H50.0868V8.45172L46.2812 9.28072V23.5397H50.0868V17.1887H52.0306C52.3671 21.3267 54.5343 23.8887 59.154 23.8887C64.1963 23.8887 66.3244 20.8267 66.3244 15.9967C66.3244 11.1667 64.1933 8.10971 59.1509 8.10971L59.154 8.10571ZM59.154 20.7987C56.5922 20.7987 55.9413 18.7767 55.9413 15.9987C55.9413 13.2207 56.5912 11.1987 59.154 11.1987C61.7167 11.1987 62.3667 13.2217 62.3667 15.9987C62.3667 18.7757 61.7137 20.8027 59.1509 20.8027L59.154 20.7987ZM147.012 23.5387H143.206V18.1307L142.143 16.8307L138.684 23.5367H134.446L139.529 14.3267L134.508 8.44971H139.057C140.415 10.2877 141.797 12.1297 143.206 13.9607V8.44971H147.012V13.9607C148.414 12.1307 149.828 10.2877 151.187 8.44971H155.735L150.775 14.2397L155.906 23.5397H151.428L148.007 16.9037L147.011 18.1317L147.012 23.5387ZM164.328 23.5387V19.4917L164.37 17.6087L163.312 19.1467L160.025 23.5387H156.911V12.3317H160.544V16.3637L160.478 18.2707L161.559 16.7097L164.828 12.3317H167.94V23.5437L164.328 23.5387ZM173.079 23.7897C171.998 23.7891 170.918 23.7051 169.85 23.5387L169.899 21.2217C170.869 21.2867 171.779 21.3217 172.793 21.3217C174.396 21.3217 175.159 20.8527 175.159 20.1317C175.159 19.2527 174.247 18.9067 172.667 18.9067H170.914V16.7067H172.712C174.284 16.7067 174.85 16.1647 174.85 15.4987C174.85 14.8327 174.35 14.4407 173.097 14.4407C172.118 14.4567 171.148 14.6303 170.224 14.9547L169.9 12.7447C171.265 12.2474 172.706 11.9876 174.159 11.9767C177.063 11.9767 178.573 13.1217 178.573 14.8767C178.583 15.5057 178.378 16.1195 177.993 16.6171C177.607 17.1147 177.064 17.4665 176.452 17.6147V17.6427C177.102 17.6688 177.718 17.9393 178.177 18.4C178.635 18.8607 178.903 19.4775 178.925 20.1267C178.92 22.6927 176.513 23.7947 173.076 23.7947L173.079 23.7897ZM188.073 23.5387V19.2117H184.453V23.5387H180.826V12.3317H184.453V16.2787H188.073V12.3327H191.679V23.5447L188.073 23.5387ZM194.213 12.3267H197.851V15.5617C198.324 15.5138 198.801 15.4921 199.277 15.4967C203.689 15.4967 204.9 17.3087 204.9 19.4917C204.9 22.5137 202.045 23.7477 198.891 23.7477C197.465 23.7477 195.837 23.6627 194.215 23.5397L194.213 12.3267ZM198.998 18.0897C198.631 18.0897 198.219 18.1067 197.851 18.1297V21.0887C198.373 21.1307 198.801 21.1517 199.194 21.1517C200.421 21.1517 201.069 20.6167 201.069 19.6657C201.066 18.6977 200.509 18.0947 198.995 18.0947L198.998 18.0897Z" fill="#2C2C2C"/>
<path d="M8.47132 19.772V23.544H12.2478C13.2495 23.5437 14.2101 23.1462 14.9183 22.4388C15.6265 21.7315 16.0243 20.7722 16.0243 19.772C16.0248 20.7722 16.423 21.7313 17.1313 22.4386C17.8396 23.1459 18.8001 23.5435 19.8018 23.544H23.5773V19.772C23.5775 19.2768 23.4801 18.7864 23.2904 18.3288C23.1008 17.8712 22.8227 17.4555 22.4721 17.1053C22.1215 16.755 21.7052 16.4773 21.247 16.2878C20.7888 16.0983 20.2977 16.0009 19.8018 16.001C20.2978 16.0009 20.7889 15.9032 21.2471 15.7135C21.7053 15.5238 22.1216 15.2458 22.4722 14.8954C22.8228 14.5451 23.1009 14.1292 23.2905 13.6715C23.4801 13.2138 23.5775 12.7233 23.5773 12.228V8.45799H19.8018C18.8003 8.45799 17.8398 8.85512 17.1314 9.56207C16.423 10.269 16.0248 11.2279 16.0243 12.228C16.0243 11.7328 15.9266 11.2425 15.7368 10.785C15.547 10.3276 15.2688 9.91193 14.9181 9.56184C14.5674 9.21175 14.1511 8.93408 13.6929 8.74467C13.2348 8.55527 12.7437 8.45786 12.2478 8.45799H8.47132V12.228C8.47105 12.7233 8.56851 13.2138 8.75811 13.6715C8.94772 14.1292 9.22576 14.5451 9.57636 14.8954C9.92696 15.2458 10.3432 15.5238 10.8014 15.7135C11.2596 15.9032 11.7508 16.0009 12.2468 16.001C11.7509 16.001 11.2599 16.0985 10.8017 16.2881C10.3436 16.4776 9.92738 16.7554 9.57678 17.1056C9.22618 17.4557 8.94809 17.8715 8.75842 18.329C8.56874 18.7865 8.47119 19.2768 8.47132 19.772ZM16.0233 12.232C16.0241 13.2317 16.4223 14.1902 17.1304 14.8969C17.8385 15.6036 18.7986 16.0007 19.7998 16.001C18.7984 16.001 17.838 16.3982 17.1298 17.1051C16.4216 17.8121 16.0236 18.771 16.0233 19.771C16.0233 18.7713 15.6257 17.8125 14.9178 17.1056C14.21 16.3986 13.2499 16.0013 12.2488 16.001C13.2497 16.0005 14.2094 15.6032 14.9172 14.8965C15.6249 14.1898 16.0228 13.2314 16.0233 12.232ZM0 0V32H32.0466V0H0ZM26.7058 26.669H5.34177V5.334H26.7068L26.7058 26.669Z" fill="#00A76D"/>
</svg>
