<svg width="54" height="54" viewBox="0 0 54 54" fill="none" xmlns="http://www.w3.org/2000/svg">
<rect x="1.5" y="1.5" width="51" height="51" rx="25.5" stroke="#2E60C0" stroke-width="3"/>
<path d="M16.2609 35.6773L25.4382 26.5L16.2609 17.3227C15.9953 17.0477 15.8483 16.6793 15.8516 16.2969C15.8549 15.9146 16.0083 15.5488 16.2787 15.2784C16.5491 15.008 16.9149 14.8546 17.2972 14.8513C17.6796 14.848 18.048 14.995 18.323 15.2606L27.5003 24.4379L36.6776 15.2606C36.8121 15.1214 36.973 15.0103 37.151 14.9338C37.3289 14.8574 37.5203 14.8172 37.7139 14.8155C37.9075 14.8138 38.0996 14.8507 38.2788 14.924C38.458 14.9974 38.6208 15.1056 38.7578 15.2426C38.8947 15.3795 39.003 15.5423 39.0763 15.7215C39.1496 15.9008 39.1865 16.0928 39.1848 16.2864C39.1832 16.4801 39.1429 16.6714 39.0665 16.8494C38.9901 17.0273 38.879 17.1882 38.7397 17.3227L29.5624 26.5L38.7397 35.6773C38.879 35.8118 38.9901 35.9728 39.0665 36.1507C39.1429 36.3286 39.1832 36.52 39.1848 36.7136C39.1865 36.9072 39.1496 37.0993 39.0763 37.2785C39.003 37.4577 38.8947 37.6205 38.7578 37.7575C38.6208 37.8944 38.458 38.0027 38.2788 38.076C38.0996 38.1493 37.9075 38.1862 37.7139 38.1845C37.5203 38.1829 37.3289 38.1426 37.151 38.0662C36.973 37.9898 36.8121 37.8787 36.6776 37.7394L27.5003 28.5621L18.323 37.7394C18.048 38.005 17.6796 38.152 17.2972 38.1487C16.9149 38.1454 16.5491 37.992 16.2787 37.7216C16.0083 37.4512 15.8549 37.0855 15.8516 36.7031C15.8483 36.3207 15.9953 35.9523 16.2609 35.6773Z" fill="#2E60C0"/>
</svg>
