<svg width="20" height="20" viewBox="0 0 20 20" fill="none" xmlns="http://www.w3.org/2000/svg">
<path d="M10.0002 0.833374C8.18717 0.833374 6.41489 1.37099 4.90744 2.37824C3.39999 3.38548 2.22507 4.81712 1.53127 6.49211C0.837468 8.1671 0.655937 10.0102 1.00964 11.7884C1.36333 13.5665 2.23637 15.1999 3.51835 16.4819C4.80034 17.7638 6.43368 18.6369 8.21184 18.9906C9.99 19.3443 11.8331 19.1627 13.5081 18.4689C15.1831 17.7751 16.6147 16.6002 17.622 15.0928C18.6292 13.5853 19.1668 11.813 19.1668 10C19.164 7.56977 18.1973 5.23986 16.4788 3.5214C14.7604 1.80293 12.4304 0.836241 10.0002 0.833374ZM10.0002 17.5C8.51681 17.5 7.06676 17.0602 5.83339 16.2361C4.60002 15.412 3.63873 14.2406 3.07107 12.8702C2.50341 11.4997 2.35489 9.99172 2.64428 8.53686C2.93367 7.08201 3.64797 5.74563 4.69687 4.69674C5.74576 3.64785 7.08213 2.93354 8.53699 2.64415C9.99185 2.35476 11.4998 2.50329 12.8703 3.07094C14.2407 3.6386 15.4121 4.5999 16.2362 5.83326C17.0603 7.06663 17.5002 8.51668 17.5002 10C17.4977 11.9884 16.7068 13.8947 15.3008 15.3007C13.8948 16.7067 11.9885 17.4976 10.0002 17.5ZM10.8335 6.66671H9.16683V5.00004H10.8335V6.66671ZM10.8335 15H9.16683V8.33337H10.8335V15Z"/>
</svg>
