<svg width="60" height="60" viewBox="0 0 60 60" fill="none" xmlns="http://www.w3.org/2000/svg">
<path d="M11.9663 59.9155C12.324 59.875 12.7626 59.7873 13.113 59.7047L26.5191 56.5242C28.5875 56.9378 41.9382 59.6079 43.7191 59.9642C43.72 59.9643 43.7208 59.9644 43.7216 59.9645C43.7992 59.9799 43.9432 59.9983 44.0638 59.9983H54.7269C57.6344 59.9983 59.9999 57.6328 59.9999 54.7253C59.9999 51.8177 57.6344 49.4523 54.7269 49.4523H51.6577L33.3972 36.409C30.1711 34.1046 28.2449 30.3619 28.2449 26.3972V1.76108C28.2449 0.790381 27.458 0.00341797 26.4873 0.00341797H5.27815C4.30745 0.00341797 3.52048 0.790381 3.52048 1.76108V26.7432C3.52048 33.6122 2.50971 40.1441 0.516993 46.1547C0.137104 47.2952 -0.0349127 48.492 0.00586501 49.7118C0.140385 55.7544 5.92872 60.6725 11.9663 59.9155ZM3.52013 49.6263C3.5199 49.6184 3.51966 49.6105 3.51943 49.6026C3.49178 48.7981 3.60368 48.0118 3.85303 47.2633C5.11152 43.4672 5.99726 39.4805 6.51003 35.3461L16.0137 41.5684L4.55563 52.969C3.90881 51.943 3.54462 50.7906 3.52013 49.6263ZM24.8535 28.3604C25.0066 29.579 25.3004 30.7688 25.724 31.9067L18.5607 39.034L6.88301 31.3885C6.94816 30.3864 6.99327 29.3771 7.01589 28.3602H24.8535V28.3604ZM26.0815 53.0151L22.8969 53.7706L34.8796 41.7879L40.182 45.5754L31.7683 53.989L26.8319 53.0017C26.5838 52.952 26.3277 52.9566 26.0815 53.0151ZM48.3846 51.4342L43.4862 56.3326L35.9113 54.8176L43.0821 47.6468L48.3846 51.4342ZM56.4847 54.7253C56.4847 55.6944 55.6962 56.4829 54.727 56.4829H48.3072L51.8225 52.9676H54.727C55.6963 52.9676 56.4847 53.7561 56.4847 54.7253ZM31.9797 39.7165L16.3793 55.3169L12.3136 56.2815C11.972 56.3574 11.8227 56.3899 11.5369 56.4266C10.0223 56.6186 8.45026 56.2555 7.07389 55.4225C7.64794 54.8512 26.6363 35.958 27.4053 35.193C28.4529 36.7602 29.7833 38.1477 31.354 39.2696L31.9797 39.7165ZM24.7296 3.51874V24.845H7.03581V3.51874H24.7296Z" fill="#00A76D"/>
</svg>
